<?xml version="1.0" encoding="UTF-8" standalone="no"?>
<svg xmlns:inkscape="http://www.inkscape.org/namespaces/inkscape" xmlns:sodipodi="http://sodipodi.sourceforge.net/DTD/sodipodi-0.dtd" xmlns="http://www.w3.org/2000/svg" xmlns:svg="http://www.w3.org/2000/svg" id="CONTENIDOS" viewBox="0 0 256.54999 63.929997" version="1.1" sodipodi:docname="logo-agriglobal.svg" width="256.54999" height="63.93" inkscape:version="1.1 (c68e22c387, 2021-05-23)">
  <defs id="defs1578">
    <style id="style1576">.cls-1{fill:#fff;}</style>
  </defs>
  <path class="cls-1" d="m 127.12,44.63 a 6.25,6.25 0 0 1 1.73,1.12 l -1,1.31 a 4,4 0 0 0 -2.66,-1.09 3.27,3.27 0 0 0 -2.77,1.42 10.36,10.36 0 0 0 0,9.07 3.23,3.23 0 0 0 2.76,1.46 3.39,3.39 0 0 0 1.54,-0.33 7.75,7.75 0 0 0 1.4,-0.9 l 0.94,1.29 a 5.22,5.22 0 0 1 -1.64,1.19 5.4,5.4 0 0 1 -2.3,0.47 5.21,5.21 0 0 1 -3,-0.89 5.9,5.9 0 0 1 -2,-2.63 10.88,10.88 0 0 1 -0.73,-4.17 10.24,10.24 0 0 1 0.76,-4.16 5.93,5.93 0 0 1 2.06,-2.62 5,5 0 0 1 2.9,-0.88 5.61,5.61 0 0 1 2.09,0.34" id="path1580"></path>
  <path class="cls-1" d="m 137.16,47.86 -0.34,1.94 a 3.78,3.78 0 0 0 -0.9,-0.17 1.9,1.9 0 0 0 -1.58,0.78 6.06,6.06 0 0 0 -0.94,2.41 v 6.48 h -1.84 V 47.99 h 1.58 l 0.18,2.31 a 4.34,4.34 0 0 1 1.14,-1.92 2.43,2.43 0 0 1 1.68,-0.64 4.24,4.24 0 0 1 1,0.12" id="path1582"></path>
  <path class="cls-1" d="m 146.61,49.33 a 6.9,6.9 0 0 1 1.23,4.33 8.14,8.14 0 0 1 -0.56,3.11 4.77,4.77 0 0 1 -1.62,2.09 4.33,4.33 0 0 1 -2.52,0.74 4.14,4.14 0 0 1 -3.46,-1.59 6.88,6.88 0 0 1 -1.24,-4.33 8.07,8.07 0 0 1 0.56,-3.11 4.58,4.58 0 0 1 1.62,-2.09 4.28,4.28 0 0 1 2.54,-0.74 4.11,4.11 0 0 1 3.45,1.59 m -6.19,4.35 c 0,2.88 0.91,4.33 2.72,4.33 1.81,0 2.72,-1.45 2.72,-4.35 0,-2.9 -0.9,-4.33 -2.7,-4.33 -1.8,0 -2.74,1.45 -2.74,4.35" id="path1584"></path>
  <path class="cls-1" d="m 159.21,49.29 a 8.52,8.52 0 0 1 0.94,4.37 7.67,7.67 0 0 1 -1.08,4.3 3.46,3.46 0 0 1 -3.06,1.64 3.31,3.31 0 0 1 -2.76,-1.29 v 5.38 l -1.84,0.24 V 47.99 h 1.58 l 0.14,1.53 a 4.18,4.18 0 0 1 1.4,-1.32 3.45,3.45 0 0 1 1.72,-0.47 3.2,3.2 0 0 1 3,1.56 m -1,4.37 q 0,-4.35 -2.38,-4.35 a 2.27,2.27 0 0 0 -1.42,0.49 4.78,4.78 0 0 0 -1.12,1.27 v 5.56 a 3,3 0 0 0 1,1 2.51,2.51 0 0 0 1.32,0.35 q 2.59,0 2.6,-4.32" id="path1586"></path>
  <path class="cls-1" d="m 174.46,48.06 a 5.67,5.67 0 0 1 1.64,1 l -0.78,1.25 a 6.42,6.42 0 0 0 -1.37,-0.74 4.15,4.15 0 0 0 -1.37,-0.23 2.26,2.26 0 0 0 -1.42,0.4 1.29,1.29 0 0 0 -0.52,1.08 1.32,1.32 0 0 0 0.49,1.08 5.42,5.42 0 0 0 1.79,0.73 6.15,6.15 0 0 1 2.63,1.3 2.91,2.91 0 0 1 0.87,2.23 3,3 0 0 1 -1.21,2.57 4.86,4.86 0 0 1 -2.95,0.88 5.6,5.6 0 0 1 -4,-1.49 l 1,-1.2 a 4.57,4.57 0 0 0 3,1.1 2.67,2.67 0 0 0 1.65,-0.47 1.48,1.48 0 0 0 0.61,-1.26 1.71,1.71 0 0 0 -0.22,-0.93 1.82,1.82 0 0 0 -0.76,-0.63 9.91,9.91 0 0 0 -1.58,-0.57 5.21,5.21 0 0 1 -2.43,-1.27 2.82,2.82 0 0 1 -0.75,-2 2.86,2.86 0 0 1 0.49,-1.61 3.28,3.28 0 0 1 1.36,-1.12 4.72,4.72 0 0 1 2,-0.39 5.37,5.37 0 0 1 1.94,0.32" id="path1588"></path>
  <path class="cls-1" d="m 186.92,49.33 a 6.9,6.9 0 0 1 1.23,4.33 8,8 0 0 1 -0.56,3.11 4.63,4.63 0 0 1 -1.62,2.09 4.29,4.29 0 0 1 -2.52,0.74 4.11,4.11 0 0 1 -3.45,-1.59 6.88,6.88 0 0 1 -1.24,-4.33 7.88,7.88 0 0 1 0.56,-3.11 4.63,4.63 0 0 1 1.61,-2.09 4.3,4.3 0 0 1 2.54,-0.74 4.11,4.11 0 0 1 3.45,1.59 m -6.19,4.35 c 0,2.88 0.91,4.33 2.72,4.33 1.81,0 2.72,-1.45 2.72,-4.35 0,-2.9 -0.9,-4.33 -2.7,-4.33 -1.8,0 -2.74,1.45 -2.74,4.35" id="path1590"></path>
  <path class="cls-1" d="M 192.24,58.94 A 2.66,2.66 0 0 1 191.65,57.1 V 43.43 l 1.84,-0.24 v 13.87 a 1.22,1.22 0 0 0 0.15,0.69 0.58,0.58 0 0 0 0.51,0.21 1.65,1.65 0 0 0 0.68,-0.13 l 0.48,1.38 a 2.83,2.83 0 0 1 -1.46,0.39 2,2 0 0 1 -1.61,-0.66" id="path1592"></path>
  <path class="cls-1" d="m 205.98,59.34 h -1.58 l -0.14,-1.76 a 4.28,4.28 0 0 1 -1.38,1.54 3.55,3.55 0 0 1 -1.9,0.48 2.71,2.71 0 0 1 -2.16,-0.9 3.89,3.89 0 0 1 -0.78,-2.57 v -8.14 h 1.88 v 7.93 a 2.73,2.73 0 0 0 0.38,1.64 1.48,1.48 0 0 0 1.24,0.49 c 1,0 1.91,-0.65 2.64,-2 v -8.1 h 1.84 z" id="path1594"></path>
  <path class="cls-1" d="m 215.63,58.82 a 3.8,3.8 0 0 1 -2.35,0.78 2.67,2.67 0 0 1 -2.09,-0.83 3.45,3.45 0 0 1 -0.75,-2.4 v -6.85 h -1.84 v -1.53 h 1.84 v -2.56 l 1.84,-0.24 v 2.8 h 2.5 l -0.2,1.53 h -2.3 v 6.76 a 2.2,2.2 0 0 0 0.29,1.29 1.12,1.12 0 0 0 1,0.39 2.82,2.82 0 0 0 1.39,-0.45 z" id="path1596"></path>
  <path class="cls-1" d="m 219.92,42.93 a 1.37,1.37 0 0 1 0.36,1 1.33,1.33 0 0 1 -0.36,1 1.24,1.24 0 0 1 -0.94,0.38 1.23,1.23 0 0 1 -0.92,-0.38 1.33,1.33 0 0 1 -0.36,-1 1.37,1.37 0 0 1 0.36,-1 1.23,1.23 0 0 1 0.92,-0.38 1.24,1.24 0 0 1 0.94,0.38 m 0,16.41 h -1.84 V 47.99 h 1.84 z" id="path1598"></path>
  <path class="cls-1" d="m 231.66,49.33 a 7,7 0 0 1 1.26,4.3 8,8 0 0 1 -0.56,3.11 4.68,4.68 0 0 1 -1.61,2.09 4.33,4.33 0 0 1 -2.52,0.74 4.14,4.14 0 0 1 -3.46,-1.59 6.88,6.88 0 0 1 -1.24,-4.33 8.07,8.07 0 0 1 0.56,-3.11 4.58,4.58 0 0 1 1.62,-2.09 4.28,4.28 0 0 1 2.54,-0.74 4.12,4.12 0 0 1 3.45,1.59 m -6.19,4.35 c 0,2.88 0.91,4.33 2.72,4.33 1.81,0 2.69,-1.42 2.69,-4.35 0,-2.93 -0.9,-4.33 -2.7,-4.33 -1.8,0 -2.74,1.45 -2.74,4.35" id="path1600"></path>
  <path class="cls-1" d="m 243.67,48.63 a 3.72,3.72 0 0 1 0.81,2.54 v 8.14 h -1.84 v -7.86 a 2.66,2.66 0 0 0 -0.42,-1.7 1.53,1.53 0 0 0 -1.24,-0.49 2.31,2.31 0 0 0 -1.48,0.51 5.21,5.21 0 0 0 -1.2,1.49 v 8.05 h -1.84 V 47.99 h 1.58 l 0.16,1.68 a 4.39,4.39 0 0 1 1.39,-1.42 3.41,3.41 0 0 1 1.83,-0.51 2.82,2.82 0 0 1 2.25,0.92" id="path1602"></path>
  <path class="cls-1" d="m 253.51,48.06 a 5.67,5.67 0 0 1 1.64,1 l -0.78,1.25 a 6.2,6.2 0 0 0 -1.37,-0.74 4.15,4.15 0 0 0 -1.37,-0.23 2.26,2.26 0 0 0 -1.42,0.4 1.29,1.29 0 0 0 -0.52,1.08 1.32,1.32 0 0 0 0.49,1.08 5.42,5.42 0 0 0 1.74,0.73 6.15,6.15 0 0 1 2.63,1.3 2.91,2.91 0 0 1 0.87,2.23 3,3 0 0 1 -1.21,2.57 4.84,4.84 0 0 1 -2.95,0.88 5.56,5.56 0 0 1 -4,-1.49 l 1,-1.2 a 4.59,4.59 0 0 0 3,1.1 2.63,2.63 0 0 0 1.65,-0.47 1.48,1.48 0 0 0 0.61,-1.26 1.71,1.71 0 0 0 -0.22,-0.93 1.82,1.82 0 0 0 -0.76,-0.63 9.55,9.55 0 0 0 -1.58,-0.57 5.12,5.12 0 0 1 -2.42,-1.27 2.78,2.78 0 0 1 -0.75,-2 2.85,2.85 0 0 1 0.48,-1.61 3.28,3.28 0 0 1 1.36,-1.12 4.72,4.72 0 0 1 1.95,-0.39 5.37,5.37 0 0 1 1.94,0.32" id="path1604"></path>
  <path class="cls-1" d="M 52.46,39.32 50.57,31.78 H 40.01 l -1.9,7.54 H 30.67 L 41.03,5.63 h 8.71 L 60.05,39.29 Z M 41.37,26.48 h 7.84 L 45.27,10.96 Z" id="path1606"></path>
  <path class="cls-1" d="m 85.59,14.95 a 21.79,21.79 0 0 1 -7.44,1 8.72,8.72 0 0 1 3.6,2.65 6.51,6.51 0 0 1 1.17,4 8,8 0 0 1 -1.29,4.45 8.73,8.73 0 0 1 -3.7,3.09 13.32,13.32 0 0 1 -5.62,1.11 12,12 0 0 1 -3,-0.34 2,2 0 0 0 -1,1.71 1.47,1.47 0 0 0 0.61,1.24 4.16,4.16 0 0 0 2.36,0.46 h 3.94 a 12.47,12.47 0 0 1 5,1 7.85,7.85 0 0 1 3.36,2.62 6.48,6.48 0 0 1 1.19,3.82 7,7 0 0 1 -3.38,6.16 q -3.37,2.2 -9.75,2.21 a 22.22,22.22 0 0 1 -7.23,-0.95 6.79,6.79 0 0 1 -3.72,-2.75 8.77,8.77 0 0 1 -1.07,-4.52 h 6.18 a 3.66,3.66 0 0 0 0.49,2 3,3 0 0 0 1.77,1.12 14.66,14.66 0 0 0 3.72,0.36 9.45,9.45 0 0 0 4.7,-0.83 2.6,2.6 0 0 0 1.34,-2.33 2.41,2.41 0 0 0 -1,-2.09 5.12,5.12 0 0 0 -3,-0.73 h -3.8 q -3.84,0 -5.74,-1.44 a 4.36,4.36 0 0 1 -1.89,-3.62 4.9,4.9 0 0 1 0.8,-2.65 6.85,6.85 0 0 1 2.21,-2.17 8.91,8.91 0 0 1 -3.47,-3.09 7.93,7.93 0 0 1 -1.1,-4.25 8.77,8.77 0 0 1 1.39,-4.94 8.94,8.94 0 0 1 3.89,-3.26 13.63,13.63 0 0 1 5.71,-1.14 21.5,21.5 0 0 0 6.57,-0.68 27.54,27.54 0 0 0 5.53,-2.54 z m -16.67,3.68 a 4.8,4.8 0 0 0 -1.14,3.38 5,5 0 0 0 1.14,3.45 4.61,4.61 0 0 0 6.3,0.05 5.32,5.32 0 0 0 1.07,-3.6 q 0,-4.51 -4.28,-4.52 a 4,4 0 0 0 -3.09,1.24" id="path1608"></path>
  <path class="cls-1" d="m 104.41,13.2 -1.16,6.66 a 9.59,9.59 0 0 0 -2.29,-0.34 4.27,4.27 0 0 0 -3.55,1.61 12.21,12.21 0 0 0 -2,4.86 V 39.32 H 88.5 V 13.54 h 6 l 0.63,5 a 9.42,9.42 0 0 1 2.7,-4.24 6.07,6.07 0 0 1 4,-1.5 9.74,9.74 0 0 1 2.57,0.39" id="path1610"></path>
  <path class="cls-1" d="m 113.78,1.4 a 4.12,4.12 0 0 1 0,5.79 4.23,4.23 0 0 1 -3,1.14 4.15,4.15 0 0 1 -3,-1.14 4.17,4.17 0 0 1 0,-5.79 4.15,4.15 0 0 1 3,-1.14 4.23,4.23 0 0 1 3,1.14 m 0.46,37.92 h -6.91 V 13.54 h 6.91 z" id="path1612"></path>
  <path class="cls-1" d="m 140.82,5.92 a 17.44,17.44 0 0 1 4.94,3 l -3.74,3.89 a 14.71,14.71 0 0 0 -3.39,-2 9.55,9.55 0 0 0 -3.57,-0.63 7.46,7.46 0 0 0 -6.2,3 c -1.58,2 -2.36,5.12 -2.36,9.27 0,4.38 0.61,7.51 1.82,9.41 a 6.26,6.26 0 0 0 5.67,2.85 10.32,10.32 0 0 0 5,-1.22 v -8.22 h -4.72 l -0.73,-5.21 h 12.38 v 16.59 a 24.05,24.05 0 0 1 -5.67,2.51 21.61,21.61 0 0 1 -6.16,0.9 q -7.44,0 -11.28,-4.48 -3.84,-4.48 -3.84,-13.18 a 20.14,20.14 0 0 1 2.09,-9.49 14.4,14.4 0 0 1 5.67,-6 15.84,15.84 0 0 1 8,-2 16.5,16.5 0 0 1 6.05,1" id="path1614"></path>
  <path class="cls-1" d="m 152.77,38.27 a 7.16,7.16 0 0 1 -1.76,-5.18 V 3.27 l 6.91,-0.77 v 30.4 c 0,1.13 0.47,1.7 1.41,1.7 a 3.06,3.06 0 0 0 1.36,-0.29 l 1.41,4.91 a 10.9,10.9 0 0 1 -4.42,0.88 6.46,6.46 0 0 1 -4.91,-1.83" id="path1616"></path>
  <path class="cls-1" d="m 184.82,16.38 q 3.25,3.63 3.26,10.05 a 16.37,16.37 0 0 1 -1.48,7.17 11.08,11.08 0 0 1 -4.28,4.79 12.43,12.43 0 0 1 -6.6,1.71 q -5.78,0 -9.07,-3.63 -3.29,-3.63 -3.28,-10 a 16.39,16.39 0 0 1 1.48,-7.18 11.14,11.14 0 0 1 4.28,-4.79 12.59,12.59 0 0 1 6.64,-1.7 q 5.79,0 9,3.62 m -13,3.6 q -1.29,2.07 -1.29,6.45 0,4.38 1.29,6.44 a 4.64,4.64 0 0 0 7.73,0 q 1.29,-2.06 1.29,-6.44 0,-4.38 -1.26,-6.45 a 4.21,4.21 0 0 0 -3.85,-2.06 4.28,4.28 0 0 0 -3.91,2.06" id="path1618"></path>
  <path class="cls-1" d="m 213.44,16.36 q 2.5,3.6 2.5,10.07 a 18.74,18.74 0 0 1 -1.24,7.07 11.07,11.07 0 0 1 -3.55,4.85 8.77,8.77 0 0 1 -5.42,1.75 8.09,8.09 0 0 1 -6.76,-3.31 l -0.39,2.53 h -6.13 v -36 l 6.91,-0.78 v 13.82 a 8.65,8.65 0 0 1 3.06,-2.6 8.51,8.51 0 0 1 4,-1 8.07,8.07 0 0 1 7,3.6 m -4.7,10.07 c 0,-3.15 -0.39,-5.36 -1.19,-6.64 a 3.79,3.79 0 0 0 -3.43,-1.92 q -2.76,0 -4.76,3.3 v 11 a 5.07,5.07 0 0 0 4.42,2.77 q 5,0 5,-8.56" id="path1620"></path>
  <path class="cls-1" d="m 240.6,34.38 a 2.64,2.64 0 0 0 1.47,1.05 L 240.6,40 a 8.56,8.56 0 0 1 -3.68,-1.07 5.66,5.66 0 0 1 -2.21,-2.73 8.58,8.58 0 0 1 -7.73,3.9 8.36,8.36 0 0 1 -6.11,-2.22 7.68,7.68 0 0 1 -2.26,-5.76 7.52,7.52 0 0 1 3.06,-6.47 c 2.05,-1.49 5,-2.24 8.81,-2.24 h 3 v -1.26 a 4.24,4.24 0 0 0 -1.07,-3.31 5.41,5.41 0 0 0 -3.55,-0.93 22.35,22.35 0 0 0 -6.81,1.37 l -1.63,-4.65 a 25.77,25.77 0 0 1 9.53,-1.9 c 3.51,0 6.08,0.75 7.74,2.26 1.66,1.51 2.48,3.75 2.48,6.74 v 10.41 a 4.35,4.35 0 0 0 0.43,2.21 m -7.19,-2.12 v -4.91 h -2.29 c -3.73,0 -5.59,1.4 -5.59,4.18 a 3.85,3.85 0 0 0 0.85,2.66 3.11,3.11 0 0 0 2.45,0.94 5.08,5.08 0 0 0 4.58,-2.87" id="path1622"></path>
  <path class="cls-1" d="m 247.21,38.27 a 7.2,7.2 0 0 1 -1.75,-5.18 V 3.27 l 6.91,-0.77 v 30.4 c 0,1.13 0.47,1.7 1.41,1.7 a 3.06,3.06 0 0 0 1.36,-0.29 l 1.41,4.91 a 10.93,10.93 0 0 1 -4.42,0.88 6.5,6.5 0 0 1 -4.92,-1.83" id="path1624"></path>
  <path class="cls-1" d="m 6.37,14.98 a 23.71,23.71 0 0 1 4.12,0.2 c 1.31,0.3 3.66,1.11 3.28,4.49 a 3.11,3.11 0 0 1 -3.7,3 A 3.46,3.46 0 0 1 6.97,20.42 26.73,26.73 0 0 1 6.37,15" id="path1626"></path>
  <path class="cls-1" d="m 15.69,6.18 a 24.84,24.84 0 0 0 -2.8,3.08 c -0.74,1.14 -1.87,3.37 0.69,5.39 2.56,2.02 4.3,-0.27 4.67,-0.63 a 3.49,3.49 0 0 0 0.68,-3.74 24.15,24.15 0 0 0 -3.24,-4.1" id="path1628"></path>
  <path class="cls-1" d="M 15.54,0 C 10.82,0 7,1.55 4.19,4.6 1.38,7.65 0,11.72 0,16.79 0,21.86 1.41,26.14 4.18,29.2 a 14,14 0 0 0 8.63,4.48 4.84,4.84 0 0 0 2.87,-2.11 3.34,3.34 0 0 0 1.33,1.64 4.31,4.31 0 0 0 1.38,0.51 13.66,13.66 0 0 0 8.92,-4.38 c 2.6,-3 3.92,-7.28 3.92,-12.86 C 31.23,5.7 25.8,0 15.54,0 m 9,26.94 c -1.73,2 -4.19,3 -7.48,3.28 v -6.81 a 4.4,4.4 0 0 0 2.94,0.74 4,4 0 0 0 3.43,-2.37 26.13,26.13 0 0 0 0.67,-5.7 26.4,26.4 0 0 0 -4.57,0.22 4.65,4.65 0 0 0 -3.2,2 v 0 l -0.08,0.13 a 13.35,13.35 0 0 0 -1.16,4.27 c -0.36,2.4 -0.75,6.36 -0.86,7.5 A 10.68,10.68 0 0 1 6.86,26.77 c -2.14,-2.38 -3.23,-5.73 -3.23,-10 0,-4.27 1,-7.37 3.22,-9.72 v 0 c 2.13,-2.31 5,-3.44 8.68,-3.44 8.22,0 12,4.08 12,12.85 0,4.67 -1,8.19 -3,10.46" id="path1630"></path>
</svg>
